<?xml version="1.0" encoding="utf-8" standalone="no"?>
<!DOCTYPE svg PUBLIC "-//W3C//DTD SVG 1.1//EN"
  "http://www.w3.org/Graphics/SVG/1.1/DTD/svg11.dtd">
<svg xmlns:xlink="http://www.w3.org/1999/xlink" width="1600" height="900" viewBox="0 0 1600 900" xmlns="http://www.w3.org/2000/svg" version="1.1">
 <metadata>
  <rdf:RDF xmlns:dc="http://purl.org/dc/elements/1.1/" xmlns:cc="http://creativecommons.org/ns#" xmlns:rdf="http://www.w3.org/1999/02/22-rdf-syntax-ns#">
   <cc:Work>
    <dc:type rdf:resource="http://purl.org/dc/dcmitype/StillImage"/>
    <dc:format>image/svg+xml</dc:format>
   </cc:Work>
  </rdf:RDF>
 </metadata>
 <defs>
  <style type="text/css">*{stroke-linejoin: round; stroke-linecap: butt}</style>
 </defs>
 <g id="figure_1">
  <g id="patch_1">
   <path d="M 0 900 
L 1600 900 
L 1600 0 
L 0 0 
z
" style="fill: #ffffff"/>
  </g>
  <g id="axes_1">
   <g id="patch_2">
    <path d="M 136 719.1 
L 1568 719.1 
L 1568 180.9 
L 136 180.9 
z
" style="fill: #ffffff"/>
   </g>
   <g id="matplotlib.axis_1">
    <g id="xtick_1">
     <g id="line2d_1">
      <path d="M 202.080888 719.1 
L 202.080888 180.9 
" clip-path="url(#peb1cd4f089)" style="fill: none; stroke: #e2e8f0; stroke-width: 1.5; stroke-linecap: square"/>
     </g>
     <g id="line2d_2">
      <defs>
       <path id="mc1ba2faf52" d="M 0 0 
L 0 7 
" style="stroke: #0f172a; stroke-width: 1.5"/>
      </defs>
      <g>
       <use xlink:href="#mc1ba2faf52" x="202.080888" y="719.1" style="fill: #0f172a; stroke: #0f172a; stroke-width: 1.5"/>
      </g>
     </g>
     <g id="text_1">
      <text style="font-size: 21px; font-family: 'Space Grotesk', sans-serif; text-anchor: middle; fill: #0f172a" x="202.080888" y="745.556719" transform="rotate(-0 202.080888 745.556719)">1</text>
     </g>
    </g>
    <g id="xtick_2">
     <g id="line2d_3">
      <path d="M 386.430603 719.1 
L 386.430603 180.9 
" clip-path="url(#peb1cd4f089)" style="fill: none; stroke: #e2e8f0; stroke-width: 1.5; stroke-linecap: square"/>
     </g>
     <g id="line2d_4">
      <g>
       <use xlink:href="#mc1ba2faf52" x="386.430603" y="719.1" style="fill: #0f172a; stroke: #0f172a; stroke-width: 1.5"/>
      </g>
     </g>
     <g id="text_2">
      <text style="font-size: 21px; font-family: 'Space Grotesk', sans-serif; text-anchor: middle; fill: #0f172a" x="386.430603" y="745.556719" transform="rotate(-0 386.430603 745.556719)">2</text>
     </g>
    </g>
    <g id="xtick_3">
     <g id="line2d_5">
      <path d="M 570.780319 719.1 
L 570.780319 180.9 
" clip-path="url(#peb1cd4f089)" style="fill: none; stroke: #e2e8f0; stroke-width: 1.5; stroke-linecap: square"/>
     </g>
     <g id="line2d_6">
      <g>
       <use xlink:href="#mc1ba2faf52" x="570.780319" y="719.1" style="fill: #0f172a; stroke: #0f172a; stroke-width: 1.5"/>
      </g>
     </g>
     <g id="text_3">
      <text style="font-size: 21px; font-family: 'Space Grotesk', sans-serif; text-anchor: middle; fill: #0f172a" x="570.780319" y="745.556719" transform="rotate(-0 570.780319 745.556719)">4</text>
     </g>
    </g>
    <g id="xtick_4">
     <g id="line2d_7">
      <path d="M 755.130035 719.1 
L 755.130035 180.9 
" clip-path="url(#peb1cd4f089)" style="fill: none; stroke: #e2e8f0; stroke-width: 1.5; stroke-linecap: square"/>
     </g>
     <g id="line2d_8">
      <g>
       <use xlink:href="#mc1ba2faf52" x="755.130035" y="719.1" style="fill: #0f172a; stroke: #0f172a; stroke-width: 1.5"/>
      </g>
     </g>
     <g id="text_4">
      <text style="font-size: 21px; font-family: 'Space Grotesk', sans-serif; text-anchor: middle; fill: #0f172a" x="755.130035" y="745.556719" transform="rotate(-0 755.130035 745.556719)">8</text>
     </g>
    </g>
    <g id="xtick_5">
     <g id="line2d_9">
      <path d="M 939.47975 719.1 
L 939.47975 180.9 
" clip-path="url(#peb1cd4f089)" style="fill: none; stroke: #e2e8f0; stroke-width: 1.5; stroke-linecap: square"/>
     </g>
     <g id="line2d_10">
      <g>
       <use xlink:href="#mc1ba2faf52" x="939.47975" y="719.1" style="fill: #0f172a; stroke: #0f172a; stroke-width: 1.5"/>
      </g>
     </g>
     <g id="text_5">
      <text style="font-size: 21px; font-family: 'Space Grotesk', sans-serif; text-anchor: middle; fill: #0f172a" x="939.47975" y="745.556719" transform="rotate(-0 939.47975 745.556719)">16</text>
     </g>
    </g>
    <g id="xtick_6">
     <g id="line2d_11">
      <path d="M 1123.829466 719.1 
L 1123.829466 180.9 
" clip-path="url(#peb1cd4f089)" style="fill: none; stroke: #e2e8f0; stroke-width: 1.5; stroke-linecap: square"/>
     </g>
     <g id="line2d_12">
      <g>
       <use xlink:href="#mc1ba2faf52" x="1123.829466" y="719.1" style="fill: #0f172a; stroke: #0f172a; stroke-width: 1.5"/>
      </g>
     </g>
     <g id="text_6">
      <text style="font-size: 21px; font-family: 'Space Grotesk', sans-serif; text-anchor: middle; fill: #0f172a" x="1123.829466" y="745.556719" transform="rotate(-0 1123.829466 745.556719)">32</text>
     </g>
    </g>
    <g id="xtick_7">
     <g id="line2d_13">
      <path d="M 1308.179182 719.1 
L 1308.179182 180.9 
" clip-path="url(#peb1cd4f089)" style="fill: none; stroke: #e2e8f0; stroke-width: 1.5; stroke-linecap: square"/>
     </g>
     <g id="line2d_14">
      <g>
       <use xlink:href="#mc1ba2faf52" x="1308.179182" y="719.1" style="fill: #0f172a; stroke: #0f172a; stroke-width: 1.5"/>
      </g>
     </g>
     <g id="text_7">
      <text style="font-size: 21px; font-family: 'Space Grotesk', sans-serif; text-anchor: middle; fill: #0f172a" x="1308.179182" y="745.556719" transform="rotate(-0 1308.179182 745.556719)">64</text>
     </g>
    </g>
    <g id="xtick_8">
     <g id="line2d_15">
      <path d="M 1492.528897 719.1 
L 1492.528897 180.9 
" clip-path="url(#peb1cd4f089)" style="fill: none; stroke: #e2e8f0; stroke-width: 1.5; stroke-linecap: square"/>
     </g>
     <g id="line2d_16">
      <g>
       <use xlink:href="#mc1ba2faf52" x="1492.528897" y="719.1" style="fill: #0f172a; stroke: #0f172a; stroke-width: 1.5"/>
      </g>
     </g>
     <g id="text_8">
      <text style="font-size: 21px; font-family: 'Space Grotesk', sans-serif; text-anchor: middle; fill: #0f172a" x="1492.528897" y="745.556719" transform="rotate(-0 1492.528897 745.556719)">128</text>
     </g>
    </g>
    <g id="text_9">
     <text style="font-size: 24px; font-family: 'Space Grotesk', sans-serif; text-anchor: middle; fill: #0f172a" x="852" y="780.160313" transform="rotate(-0 852 780.160313)">Number of concurrent requests</text>
    </g>
   </g>
   <g id="matplotlib.axis_2">
    <g id="ytick_1">
     <g id="line2d_17">
      <path d="M 136 667.982866 
L 1568 667.982866 
" clip-path="url(#peb1cd4f089)" style="fill: none; stroke: #e2e8f0; stroke-width: 1.5; stroke-linecap: square"/>
     </g>
     <g id="line2d_18">
      <defs>
       <path id="mb922d8df69" d="M 0 0 
L -7 0 
" style="stroke: #0f172a; stroke-width: 1.5"/>
      </defs>
      <g>
       <use xlink:href="#mb922d8df69" x="136" y="667.982866" style="fill: #0f172a; stroke: #0f172a; stroke-width: 1.5"/>
      </g>
     </g>
     <g id="text_10">
      <text style="font-size: 21px; font-family: 'Space Grotesk', sans-serif; text-anchor: end; fill: #0f172a" x="125.5" y="675.961226" transform="rotate(-0 125.5 675.961226)">100</text>
     </g>
    </g>
    <g id="ytick_2">
     <g id="line2d_19">
      <path d="M 136 598.621238 
L 1568 598.621238 
" clip-path="url(#peb1cd4f089)" style="fill: none; stroke: #e2e8f0; stroke-width: 1.5; stroke-linecap: square"/>
     </g>
     <g id="line2d_20">
      <g>
       <use xlink:href="#mb922d8df69" x="136" y="598.621238" style="fill: #0f172a; stroke: #0f172a; stroke-width: 1.5"/>
      </g>
     </g>
     <g id="text_11">
      <text style="font-size: 21px; font-family: 'Space Grotesk', sans-serif; text-anchor: end; fill: #0f172a" x="125.5" y="606.599597" transform="rotate(-0 125.5 606.599597)">200</text>
     </g>
    </g>
    <g id="ytick_3">
     <g id="line2d_21">
      <path d="M 136 506.930153 
L 1568 506.930153 
" clip-path="url(#peb1cd4f089)" style="fill: none; stroke: #e2e8f0; stroke-width: 1.5; stroke-linecap: square"/>
     </g>
     <g id="line2d_22">
      <g>
       <use xlink:href="#mb922d8df69" x="136" y="506.930153" style="fill: #0f172a; stroke: #0f172a; stroke-width: 1.5"/>
      </g>
     </g>
     <g id="text_12">
      <text style="font-size: 21px; font-family: 'Space Grotesk', sans-serif; text-anchor: end; fill: #0f172a" x="125.5" y="514.908512" transform="rotate(-0 125.5 514.908512)">500</text>
     </g>
    </g>
    <g id="ytick_4">
     <g id="line2d_23">
      <path d="M 136 437.568524 
L 1568 437.568524 
" clip-path="url(#peb1cd4f089)" style="fill: none; stroke: #e2e8f0; stroke-width: 1.5; stroke-linecap: square"/>
     </g>
     <g id="line2d_24">
      <g>
       <use xlink:href="#mb922d8df69" x="136" y="437.568524" style="fill: #0f172a; stroke: #0f172a; stroke-width: 1.5"/>
      </g>
     </g>
     <g id="text_13">
      <text style="font-size: 21px; font-family: 'Space Grotesk', sans-serif; text-anchor: end; fill: #0f172a" x="125.5" y="445.546884" transform="rotate(-0 125.5 445.546884)">1,000</text>
     </g>
    </g>
    <g id="ytick_5">
     <g id="line2d_25">
      <path d="M 136 368.206896 
L 1568 368.206896 
" clip-path="url(#peb1cd4f089)" style="fill: none; stroke: #e2e8f0; stroke-width: 1.5; stroke-linecap: square"/>
     </g>
     <g id="line2d_26">
      <g>
       <use xlink:href="#mb922d8df69" x="136" y="368.206896" style="fill: #0f172a; stroke: #0f172a; stroke-width: 1.5"/>
      </g>
     </g>
     <g id="text_14">
      <text style="font-size: 21px; font-family: 'Space Grotesk', sans-serif; text-anchor: end; fill: #0f172a" x="125.5" y="376.185255" transform="rotate(-0 125.5 376.185255)">2,000</text>
     </g>
    </g>
    <g id="ytick_6">
     <g id="line2d_27">
      <path d="M 136 276.515811 
L 1568 276.515811 
" clip-path="url(#peb1cd4f089)" style="fill: none; stroke: #e2e8f0; stroke-width: 1.5; stroke-linecap: square"/>
     </g>
     <g id="line2d_28">
      <g>
       <use xlink:href="#mb922d8df69" x="136" y="276.515811" style="fill: #0f172a; stroke: #0f172a; stroke-width: 1.5"/>
      </g>
     </g>
     <g id="text_15">
      <text style="font-size: 21px; font-family: 'Space Grotesk', sans-serif; text-anchor: end; fill: #0f172a" x="125.5" y="284.49417" transform="rotate(-0 125.5 284.49417)">5,000</text>
     </g>
    </g>
    <g id="ytick_7">
     <g id="line2d_29">
      <path d="M 136 207.154183 
L 1568 207.154183 
" clip-path="url(#peb1cd4f089)" style="fill: none; stroke: #e2e8f0; stroke-width: 1.5; stroke-linecap: square"/>
     </g>
     <g id="line2d_30">
      <g>
       <use xlink:href="#mb922d8df69" x="136" y="207.154183" style="fill: #0f172a; stroke: #0f172a; stroke-width: 1.5"/>
      </g>
     </g>
     <g id="text_16">
      <text style="font-size: 21px; font-family: 'Space Grotesk', sans-serif; text-anchor: end; fill: #0f172a" x="125.5" y="215.132542" transform="rotate(-0 125.5 215.132542)">10,000</text>
     </g>
    </g>
    <g id="text_17">
     <text style="font-size: 24px; font-family: 'Space Grotesk', sans-serif; text-anchor: middle; fill: #0f172a" x="35.028438" y="450" transform="rotate(-90 35.028438 450)">Total output throughput, tok/s</text>
    </g>
   </g>
   <g id="line2d_31">
    <path d="M 202.080888 626.735477 
L 755.130035 428.108056 
" clip-path="url(#peb1cd4f089)" style="fill: none; stroke-dasharray: 9.6,6.8; stroke-dashoffset: 0; stroke: #22d3ee; stroke-width: 4"/>
   </g>
   <g id="line2d_32">
    <path d="M 755.130035 428.108056 
L 939.47975 362.380102 
L 1123.829466 303.543132 
L 1308.179182 258.466734 
L 1492.528897 220.944676 
" clip-path="url(#peb1cd4f089)" style="fill: none; stroke: #22d3ee; stroke-width: 4; stroke-linecap: square"/>
   </g>
   <g id="line2d_33">
    <path d="M 202.080888 681.981378 
L 755.130035 487.597417 
" clip-path="url(#peb1cd4f089)" style="fill: none; stroke-dasharray: 9.6,6.8; stroke-dashoffset: 0; stroke: #2563eb; stroke-width: 4"/>
   </g>
   <g id="line2d_34">
    <path d="M 755.130035 487.597417 
L 939.47975 421.13982 
L 1123.829466 355.899041 
L 1308.179182 303.30763 
L 1492.528897 267.747762 
" clip-path="url(#peb1cd4f089)" style="fill: none; stroke: #2563eb; stroke-width: 4; stroke-linecap: square"/>
   </g>
   <g id="line2d_35">
    <path d="M 202.080888 613.58791 
L 755.130035 612.233154 
" clip-path="url(#peb1cd4f089)" style="fill: none; stroke-dasharray: 9.6,6.8; stroke-dashoffset: 0; stroke: #94a3b8; stroke-width: 4"/>
   </g>
   <g id="line2d_36">
    <path d="M 755.130035 612.233154 
L 939.47975 489.170778 
L 1123.829466 465.636908 
L 1308.179182 467.000868 
L 1492.528897 467.556854 
" clip-path="url(#peb1cd4f089)" style="fill: none; stroke: #94a3b8; stroke-width: 4; stroke-linecap: square"/>
   </g>
   <g id="line2d_37">
    <path d="M 202.080888 691.209883 
L 755.130035 552.672396 
" clip-path="url(#peb1cd4f089)" style="fill: none; stroke-dasharray: 9.6,6.8; stroke-dashoffset: 0; stroke: #64748b; stroke-width: 4"/>
   </g>
   <g id="line2d_38">
    <path d="M 755.130035 552.672396 
L 939.47975 527.167102 
L 1123.829466 531.882355 
L 1308.179182 527.242956 
L 1492.528897 528.83132 
" clip-path="url(#peb1cd4f089)" style="fill: none; stroke: #64748b; stroke-width: 4; stroke-linecap: square"/>
   </g>
   <g id="line2d_39">
    <defs>
     <path id="m36f28291d5" d="M 0 7 
C 1.856422 7 3.637059 6.262436 4.949747 4.949747 
C 6.262436 3.637059 7 1.856422 7 0 
C 7 -1.856422 6.262436 -3.637059 4.949747 -4.949747 
C 3.637059 -6.262436 1.856422 -7 0 -7 
C -1.856422 -7 -3.637059 -6.262436 -4.949747 -4.949747 
C -6.262436 -3.637059 -7 -1.856422 -7 0 
C -7 1.856422 -6.262436 3.637059 -4.949747 4.949747 
C -3.637059 6.262436 -1.856422 7 0 7 
z
" style="stroke: #22d3ee; stroke-opacity: 0.38; stroke-width: 3"/>
    </defs>
    <g clip-path="url(#peb1cd4f089)">
     <use xlink:href="#m36f28291d5" x="202.080888" y="620.615741" style="fill: #22d3ee; fill-opacity: 0.38; stroke: #22d3ee; stroke-opacity: 0.38; stroke-width: 3"/>
    </g>
   </g>
   <g id="line2d_40">
    <g clip-path="url(#peb1cd4f089)">
     <use xlink:href="#m36f28291d5" x="1123.829466" y="298.395904" style="fill: #22d3ee; fill-opacity: 0.38; stroke: #22d3ee; stroke-opacity: 0.38; stroke-width: 3"/>
    </g>
   </g>
   <g id="line2d_41">
    <g clip-path="url(#peb1cd4f089)">
     <use xlink:href="#m36f28291d5" x="1492.528897" y="217.011684" style="fill: #22d3ee; fill-opacity: 0.38; stroke: #22d3ee; stroke-opacity: 0.38; stroke-width: 3"/>
    </g>
   </g>
   <g id="line2d_42">
    <defs>
     <path id="m5d1badb7db" d="M 0 7 
C 1.856422 7 3.637059 6.262436 4.949747 4.949747 
C 6.262436 3.637059 7 1.856422 7 0 
C 7 -1.856422 6.262436 -3.637059 4.949747 -4.949747 
C 3.637059 -6.262436 1.856422 -7 0 -7 
C -1.856422 -7 -3.637059 -6.262436 -4.949747 -4.949747 
C -6.262436 -3.637059 -7 -1.856422 -7 0 
C -7 1.856422 -6.262436 3.637059 -4.949747 4.949747 
C -3.637059 6.262436 -1.856422 7 0 7 
z
" style="stroke: #2563eb; stroke-opacity: 0.38; stroke-width: 3"/>
    </defs>
    <g clip-path="url(#peb1cd4f089)">
     <use xlink:href="#m5d1badb7db" x="202.080888" y="671.098594" style="fill: #2563eb; fill-opacity: 0.38; stroke: #2563eb; stroke-opacity: 0.38; stroke-width: 3"/>
    </g>
   </g>
   <g id="line2d_43">
    <g clip-path="url(#peb1cd4f089)">
     <use xlink:href="#m5d1badb7db" x="1123.829466" y="344.36292" style="fill: #2563eb; fill-opacity: 0.38; stroke: #2563eb; stroke-opacity: 0.38; stroke-width: 3"/>
    </g>
   </g>
   <g id="line2d_44">
    <g clip-path="url(#peb1cd4f089)">
     <use xlink:href="#m5d1badb7db" x="1492.528897" y="257.552416" style="fill: #2563eb; fill-opacity: 0.38; stroke: #2563eb; stroke-opacity: 0.38; stroke-width: 3"/>
    </g>
   </g>
   <g id="line2d_45">
    <g clip-path="url(#peb1cd4f089)">
     <use xlink:href="#m5d1badb7db" x="1492.528897" y="257.445715" style="fill: #2563eb; fill-opacity: 0.38; stroke: #2563eb; stroke-opacity: 0.38; stroke-width: 3"/>
    </g>
   </g>
   <g id="line2d_46">
    <defs>
     <path id="m316c86fa87" d="M 0 7 
C 1.856422 7 3.637059 6.262436 4.949747 4.949747 
C 6.262436 3.637059 7 1.856422 7 0 
C 7 -1.856422 6.262436 -3.637059 4.949747 -4.949747 
C 3.637059 -6.262436 1.856422 -7 0 -7 
C -1.856422 -7 -3.637059 -6.262436 -4.949747 -4.949747 
C -6.262436 -3.637059 -7 -1.856422 -7 0 
C -7 1.856422 -6.262436 3.637059 -4.949747 4.949747 
C -3.637059 6.262436 -1.856422 7 0 7 
z
" style="stroke: #94a3b8; stroke-opacity: 0.38; stroke-width: 3"/>
    </defs>
    <g clip-path="url(#peb1cd4f089)">
     <use xlink:href="#m316c86fa87" x="202.080888" y="603.098749" style="fill: #94a3b8; fill-opacity: 0.38; stroke: #94a3b8; stroke-opacity: 0.38; stroke-width: 3"/>
    </g>
   </g>
   <g id="line2d_47">
    <defs>
     <path id="m12423b423d" d="M 0 7 
C 1.856422 7 3.637059 6.262436 4.949747 4.949747 
C 6.262436 3.637059 7 1.856422 7 0 
C 7 -1.856422 6.262436 -3.637059 4.949747 -4.949747 
C 3.637059 -6.262436 1.856422 -7 0 -7 
C -1.856422 -7 -3.637059 -6.262436 -4.949747 -4.949747 
C -6.262436 -3.637059 -7 -1.856422 -7 0 
C -7 1.856422 -6.262436 3.637059 -4.949747 4.949747 
C -3.637059 6.262436 -1.856422 7 0 7 
z
" style="stroke: #94a3b8; stroke-opacity: 0.38; stroke-width: 3"/>
    </defs>
    <g clip-path="url(#peb1cd4f089)">
     <use xlink:href="#m12423b423d" x="1123.829466" y="462.90079" style="fill: #ffffff; fill-opacity: 0.38; stroke: #94a3b8; stroke-opacity: 0.38; stroke-width: 3"/>
    </g>
   </g>
   <g id="line2d_48">
    <g clip-path="url(#peb1cd4f089)">
     <use xlink:href="#m12423b423d" x="1492.528897" y="462.400786" style="fill: #ffffff; fill-opacity: 0.38; stroke: #94a3b8; stroke-opacity: 0.38; stroke-width: 3"/>
    </g>
   </g>
   <g id="line2d_49">
    <defs>
     <path id="ma7f3c3bebd" d="M 0 7 
C 1.856422 7 3.637059 6.262436 4.949747 4.949747 
C 6.262436 3.637059 7 1.856422 7 0 
C 7 -1.856422 6.262436 -3.637059 4.949747 -4.949747 
C 3.637059 -6.262436 1.856422 -7 0 -7 
C -1.856422 -7 -3.637059 -6.262436 -4.949747 -4.949747 
C -6.262436 -3.637059 -7 -1.856422 -7 0 
C -7 1.856422 -6.262436 3.637059 -4.949747 4.949747 
C -3.637059 6.262436 -1.856422 7 0 7 
z
" style="stroke: #64748b; stroke-opacity: 0.38; stroke-width: 3"/>
    </defs>
    <g clip-path="url(#peb1cd4f089)">
     <use xlink:href="#ma7f3c3bebd" x="202.080888" y="680.958917" style="fill: #64748b; fill-opacity: 0.38; stroke: #64748b; stroke-opacity: 0.38; stroke-width: 3"/>
    </g>
   </g>
   <g id="line2d_50">
    <defs>
     <path id="m3da046ff65" d="M 0 7 
C 1.856422 7 3.637059 6.262436 4.949747 4.949747 
C 6.262436 3.637059 7 1.856422 7 0 
C 7 -1.856422 6.262436 -3.637059 4.949747 -4.949747 
C 3.637059 -6.262436 1.856422 -7 0 -7 
C -1.856422 -7 -3.637059 -6.262436 -4.949747 -4.949747 
C -6.262436 -3.637059 -7 -1.856422 -7 0 
C -7 1.856422 -6.262436 3.637059 -4.949747 4.949747 
C -3.637059 6.262436 -1.856422 7 0 7 
z
" style="stroke: #64748b; stroke-opacity: 0.38; stroke-width: 3"/>
    </defs>
    <g clip-path="url(#peb1cd4f089)">
     <use xlink:href="#m3da046ff65" x="1123.829466" y="519.649545" style="fill: #ffffff; fill-opacity: 0.38; stroke: #64748b; stroke-opacity: 0.38; stroke-width: 3"/>
    </g>
   </g>
   <g id="line2d_51">
    <g clip-path="url(#peb1cd4f089)">
     <use xlink:href="#m3da046ff65" x="1492.528897" y="519.623184" style="fill: #ffffff; fill-opacity: 0.38; stroke: #64748b; stroke-opacity: 0.38; stroke-width: 3"/>
    </g>
   </g>
   <g id="patch_3">
    <path d="M 136 719.1 
L 136 180.9 
" style="fill: none; stroke: #475569; stroke-width: 1.5; stroke-linejoin: miter; stroke-linecap: square"/>
   </g>
   <g id="patch_4">
    <path d="M 1568 719.1 
L 1568 180.9 
" style="fill: none; stroke: #475569; stroke-width: 1.5; stroke-linejoin: miter; stroke-linecap: square"/>
   </g>
   <g id="patch_5">
    <path d="M 136 719.1 
L 1568 719.1 
" style="fill: none; stroke: #475569; stroke-width: 1.5; stroke-linejoin: miter; stroke-linecap: square"/>
   </g>
   <g id="patch_6">
    <path d="M 136 180.9 
L 1568 180.9 
" style="fill: none; stroke: #475569; stroke-width: 1.5; stroke-linejoin: miter; stroke-linecap: square"/>
   </g>
   <g id="text_18">
    <text style="font-size: 20px; font-family: 'Space Grotesk', sans-serif; text-anchor: end; fill: #0f172a" x="745.130035" y="414.108056" transform="rotate(-0 745.130035 414.108056)">8</text>
   </g>
   <g id="text_19">
    <text style="font-size: 20px; font-family: 'Space Grotesk', sans-serif; text-anchor: end; fill: #0f172a" x="929.47975" y="348.380102" transform="rotate(-0 929.47975 348.380102)">16</text>
   </g>
   <g id="text_20">
    <text style="font-size: 20px; font-family: 'Space Grotesk', sans-serif; text-anchor: end; fill: #0f172a" x="1113.829466" y="289.543132" transform="rotate(-0 1113.829466 289.543132)">32</text>
   </g>
   <g id="text_21">
    <text style="font-size: 20px; font-family: 'Space Grotesk', sans-serif; text-anchor: end; fill: #0f172a" x="1298.179182" y="244.466734" transform="rotate(-0 1298.179182 244.466734)">64</text>
   </g>
   <g id="text_22">
    <text style="font-size: 20px; font-family: 'Space Grotesk', sans-serif; text-anchor: end; fill: #0f172a" x="1482.528897" y="206.944676" transform="rotate(-0 1482.528897 206.944676)">128</text>
   </g>
   <g id="line2d_52">
    <defs>
     <path id="m572ff442de" d="M 0 9.899495 
L 9.899495 0 
L 0 -9.899495 
L -9.899495 0 
z
" style="stroke: #22d3ee; stroke-width: 3; stroke-linejoin: miter"/>
    </defs>
    <g clip-path="url(#peb1cd4f089)">
     <use xlink:href="#m572ff442de" x="202.080888" y="628.337339" style="fill: #22d3ee; stroke: #22d3ee; stroke-width: 3; stroke-linejoin: miter"/>
    </g>
   </g>
   <g id="line2d_53">
    <g clip-path="url(#peb1cd4f089)">
     <use xlink:href="#m572ff442de" x="386.430603" y="563.441946" style="fill: #22d3ee; stroke: #22d3ee; stroke-width: 3; stroke-linejoin: miter"/>
    </g>
   </g>
   <g id="line2d_54">
    <g clip-path="url(#peb1cd4f089)">
     <use xlink:href="#m572ff442de" x="570.780319" y="492.095897" style="fill: #22d3ee; stroke: #22d3ee; stroke-width: 3; stroke-linejoin: miter"/>
    </g>
   </g>
   <g id="text_23">
    <text style="font-size: 20px; font-family: 'Space Grotesk', sans-serif; text-anchor: end; fill: #0f172a" x="745.130035" y="473.597417" transform="rotate(-0 745.130035 473.597417)">8</text>
   </g>
   <g id="text_24">
    <text style="font-size: 20px; font-family: 'Space Grotesk', sans-serif; text-anchor: end; fill: #0f172a" x="929.47975" y="407.13982" transform="rotate(-0 929.47975 407.13982)">16</text>
   </g>
   <g id="text_25">
    <text style="font-size: 20px; font-family: 'Space Grotesk', sans-serif; text-anchor: end; fill: #0f172a" x="1113.829466" y="341.899041" transform="rotate(-0 1113.829466 341.899041)">32</text>
   </g>
   <g id="text_26">
    <text style="font-size: 20px; font-family: 'Space Grotesk', sans-serif; text-anchor: end; fill: #0f172a" x="1298.179182" y="289.30763" transform="rotate(-0 1298.179182 289.30763)">64</text>
   </g>
   <g id="text_27">
    <text style="font-size: 20px; font-family: 'Space Grotesk', sans-serif; text-anchor: end; fill: #0f172a" x="1482.528897" y="253.747762" transform="rotate(-0 1482.528897 253.747762)">128</text>
   </g>
   <g id="line2d_55">
    <defs>
     <path id="m41b0974f36" d="M 0 9.899495 
L 9.899495 0 
L 0 -9.899495 
L -9.899495 0 
z
" style="stroke: #2563eb; stroke-width: 3; stroke-linejoin: miter"/>
    </defs>
    <g clip-path="url(#peb1cd4f089)">
     <use xlink:href="#m41b0974f36" x="202.080888" y="676.814694" style="fill: #2563eb; stroke: #2563eb; stroke-width: 3; stroke-linejoin: miter"/>
    </g>
   </g>
   <g id="line2d_56">
    <g clip-path="url(#peb1cd4f089)">
     <use xlink:href="#m41b0974f36" x="386.430603" y="612.951202" style="fill: #2563eb; stroke: #2563eb; stroke-width: 3; stroke-linejoin: miter"/>
    </g>
   </g>
   <g id="line2d_57">
    <g clip-path="url(#peb1cd4f089)">
     <use xlink:href="#m41b0974f36" x="570.780319" y="547.072582" style="fill: #2563eb; stroke: #2563eb; stroke-width: 3; stroke-linejoin: miter"/>
    </g>
   </g>
   <g id="line2d_58">
    <defs>
     <path id="m932baa1819" d="M 0 9.899495 
L 9.899495 0 
L 0 -9.899495 
L -9.899495 0 
z
" style="stroke: #94a3b8; stroke-width: 3; stroke-linejoin: miter"/>
    </defs>
    <g clip-path="url(#peb1cd4f089)">
     <use xlink:href="#m932baa1819" x="202.080888" y="611.805175" style="fill: #94a3b8; stroke: #94a3b8; stroke-width: 3; stroke-linejoin: miter"/>
    </g>
   </g>
   <g id="line2d_59">
    <g clip-path="url(#peb1cd4f089)">
     <use xlink:href="#m932baa1819" x="386.430603" y="607.552408" style="fill: #94a3b8; stroke: #94a3b8; stroke-width: 3; stroke-linejoin: miter"/>
    </g>
   </g>
   <g id="line2d_60">
    <g clip-path="url(#peb1cd4f089)">
     <use xlink:href="#m932baa1819" x="570.780319" y="604.70905" style="fill: #94a3b8; stroke: #94a3b8; stroke-width: 3; stroke-linejoin: miter"/>
    </g>
   </g>
   <g id="line2d_61">
    <defs>
     <path id="mcfebe73233" d="M 0 9.899495 
L 9.899495 0 
L 0 -9.899495 
L -9.899495 0 
z
" style="stroke: #64748b; stroke-width: 3; stroke-linejoin: miter"/>
    </defs>
    <g clip-path="url(#peb1cd4f089)">
     <use xlink:href="#mcfebe73233" x="202.080888" y="687.931572" style="fill: #64748b; stroke: #64748b; stroke-width: 3; stroke-linejoin: miter"/>
    </g>
   </g>
   <g id="line2d_62">
    <g clip-path="url(#peb1cd4f089)">
     <use xlink:href="#mcfebe73233" x="386.430603" y="674.442322" style="fill: #64748b; stroke: #64748b; stroke-width: 3; stroke-linejoin: miter"/>
    </g>
   </g>
   <g id="line2d_63">
    <g clip-path="url(#peb1cd4f089)">
     <use xlink:href="#mcfebe73233" x="570.780319" y="659.786346" style="fill: #64748b; stroke: #64748b; stroke-width: 3; stroke-linejoin: miter"/>
    </g>
   </g>
   <g id="line2d_64">
    <defs>
     <path id="m43ee8b2572" d="M 0 8.5 
C 2.254226 8.5 4.416429 7.604386 6.010408 6.010408 
C 7.604386 4.416429 8.5 2.254226 8.5 0 
C 8.5 -2.254226 7.604386 -4.416429 6.010408 -6.010408 
C 4.416429 -7.604386 2.254226 -8.5 0 -8.5 
C -2.254226 -8.5 -4.416429 -7.604386 -6.010408 -6.010408 
C -7.604386 -4.416429 -8.5 -2.254226 -8.5 0 
C -8.5 2.254226 -7.604386 4.416429 -6.010408 6.010408 
C -4.416429 7.604386 -2.254226 8.5 0 8.5 
z
" style="stroke: #22d3ee; stroke-width: 3"/>
    </defs>
    <g clip-path="url(#peb1cd4f089)">
     <use xlink:href="#m43ee8b2572" x="202.080888" y="626.735477" style="fill: #22d3ee; stroke: #22d3ee; stroke-width: 3"/>
    </g>
   </g>
   <g id="line2d_65">
    <g clip-path="url(#peb1cd4f089)">
     <use xlink:href="#m43ee8b2572" x="755.130035" y="428.108056" style="fill: #22d3ee; stroke: #22d3ee; stroke-width: 3"/>
    </g>
   </g>
   <g id="line2d_66">
    <g clip-path="url(#peb1cd4f089)">
     <use xlink:href="#m43ee8b2572" x="939.47975" y="362.380102" style="fill: #22d3ee; stroke: #22d3ee; stroke-width: 3"/>
    </g>
   </g>
   <g id="line2d_67">
    <g clip-path="url(#peb1cd4f089)">
     <use xlink:href="#m43ee8b2572" x="1123.829466" y="303.543132" style="fill: #22d3ee; stroke: #22d3ee; stroke-width: 3"/>
    </g>
   </g>
   <g id="line2d_68">
    <g clip-path="url(#peb1cd4f089)">
     <use xlink:href="#m43ee8b2572" x="1308.179182" y="258.466734" style="fill: #22d3ee; stroke: #22d3ee; stroke-width: 3"/>
    </g>
   </g>
   <g id="line2d_69">
    <g clip-path="url(#peb1cd4f089)">
     <use xlink:href="#m43ee8b2572" x="1492.528897" y="220.944676" style="fill: #22d3ee; stroke: #22d3ee; stroke-width: 3"/>
    </g>
   </g>
   <g id="line2d_70">
    <defs>
     <path id="m5e389c50ac" d="M 0 8.5 
C 2.254226 8.5 4.416429 7.604386 6.010408 6.010408 
C 7.604386 4.416429 8.5 2.254226 8.5 0 
C 8.5 -2.254226 7.604386 -4.416429 6.010408 -6.010408 
C 4.416429 -7.604386 2.254226 -8.5 0 -8.5 
C -2.254226 -8.5 -4.416429 -7.604386 -6.010408 -6.010408 
C -7.604386 -4.416429 -8.5 -2.254226 -8.5 0 
C -8.5 2.254226 -7.604386 4.416429 -6.010408 6.010408 
C -4.416429 7.604386 -2.254226 8.5 0 8.5 
z
" style="stroke: #2563eb; stroke-width: 3"/>
    </defs>
    <g clip-path="url(#peb1cd4f089)">
     <use xlink:href="#m5e389c50ac" x="202.080888" y="681.981378" style="fill: #2563eb; stroke: #2563eb; stroke-width: 3"/>
    </g>
   </g>
   <g id="line2d_71">
    <g clip-path="url(#peb1cd4f089)">
     <use xlink:href="#m5e389c50ac" x="755.130035" y="487.597417" style="fill: #2563eb; stroke: #2563eb; stroke-width: 3"/>
    </g>
   </g>
   <g id="line2d_72">
    <g clip-path="url(#peb1cd4f089)">
     <use xlink:href="#m5e389c50ac" x="939.47975" y="421.13982" style="fill: #2563eb; stroke: #2563eb; stroke-width: 3"/>
    </g>
   </g>
   <g id="line2d_73">
    <g clip-path="url(#peb1cd4f089)">
     <use xlink:href="#m5e389c50ac" x="1123.829466" y="355.899041" style="fill: #2563eb; stroke: #2563eb; stroke-width: 3"/>
    </g>
   </g>
   <g id="line2d_74">
    <g clip-path="url(#peb1cd4f089)">
     <use xlink:href="#m5e389c50ac" x="1308.179182" y="303.30763" style="fill: #2563eb; stroke: #2563eb; stroke-width: 3"/>
    </g>
   </g>
   <g id="line2d_75">
    <g clip-path="url(#peb1cd4f089)">
     <use xlink:href="#m5e389c50ac" x="1492.528897" y="267.747762" style="fill: #2563eb; stroke: #2563eb; stroke-width: 3"/>
    </g>
   </g>
   <g id="line2d_76">
    <defs>
     <path id="m17e76d209d" d="M 0 8.5 
C 2.254226 8.5 4.416429 7.604386 6.010408 6.010408 
C 7.604386 4.416429 8.5 2.254226 8.5 0 
C 8.5 -2.254226 7.604386 -4.416429 6.010408 -6.010408 
C 4.416429 -7.604386 2.254226 -8.5 0 -8.5 
C -2.254226 -8.5 -4.416429 -7.604386 -6.010408 -6.010408 
C -7.604386 -4.416429 -8.5 -2.254226 -8.5 0 
C -8.5 2.254226 -7.604386 4.416429 -6.010408 6.010408 
C -4.416429 7.604386 -2.254226 8.5 0 8.5 
z
" style="stroke: #94a3b8; stroke-width: 3"/>
    </defs>
    <g clip-path="url(#peb1cd4f089)">
     <use xlink:href="#m17e76d209d" x="202.080888" y="613.58791" style="fill: #94a3b8; stroke: #94a3b8; stroke-width: 3"/>
    </g>
   </g>
   <g id="line2d_77">
    <defs>
     <path id="m5a4453dd4b" d="M 0 8.5 
C 2.254226 8.5 4.416429 7.604386 6.010408 6.010408 
C 7.604386 4.416429 8.5 2.254226 8.5 0 
C 8.5 -2.254226 7.604386 -4.416429 6.010408 -6.010408 
C 4.416429 -7.604386 2.254226 -8.5 0 -8.5 
C -2.254226 -8.5 -4.416429 -7.604386 -6.010408 -6.010408 
C -7.604386 -4.416429 -8.5 -2.254226 -8.5 0 
C -8.5 2.254226 -7.604386 4.416429 -6.010408 6.010408 
C -4.416429 7.604386 -2.254226 8.5 0 8.5 
z
" style="stroke: #94a3b8; stroke-width: 3"/>
    </defs>
    <g clip-path="url(#peb1cd4f089)">
     <use xlink:href="#m5a4453dd4b" x="755.130035" y="612.233154" style="fill: #ffffff; stroke: #94a3b8; stroke-width: 3"/>
    </g>
   </g>
   <g id="line2d_78">
    <g clip-path="url(#peb1cd4f089)">
     <use xlink:href="#m5a4453dd4b" x="939.47975" y="489.170778" style="fill: #ffffff; stroke: #94a3b8; stroke-width: 3"/>
    </g>
   </g>
   <g id="line2d_79">
    <g clip-path="url(#peb1cd4f089)">
     <use xlink:href="#m5a4453dd4b" x="1123.829466" y="465.636908" style="fill: #ffffff; stroke: #94a3b8; stroke-width: 3"/>
    </g>
   </g>
   <g id="line2d_80">
    <g clip-path="url(#peb1cd4f089)">
     <use xlink:href="#m5a4453dd4b" x="1308.179182" y="467.000868" style="fill: #ffffff; stroke: #94a3b8; stroke-width: 3"/>
    </g>
   </g>
   <g id="line2d_81">
    <g clip-path="url(#peb1cd4f089)">
     <use xlink:href="#m5a4453dd4b" x="1492.528897" y="467.556854" style="fill: #ffffff; stroke: #94a3b8; stroke-width: 3"/>
    </g>
   </g>
   <g id="line2d_82">
    <defs>
     <path id="mb87179232a" d="M 0 8.5 
C 2.254226 8.5 4.416429 7.604386 6.010408 6.010408 
C 7.604386 4.416429 8.5 2.254226 8.5 0 
C 8.5 -2.254226 7.604386 -4.416429 6.010408 -6.010408 
C 4.416429 -7.604386 2.254226 -8.5 0 -8.5 
C -2.254226 -8.5 -4.416429 -7.604386 -6.010408 -6.010408 
C -7.604386 -4.416429 -8.5 -2.254226 -8.5 0 
C -8.5 2.254226 -7.604386 4.416429 -6.010408 6.010408 
C -4.416429 7.604386 -2.254226 8.5 0 8.5 
z
" style="stroke: #64748b; stroke-width: 3"/>
    </defs>
    <g clip-path="url(#peb1cd4f089)">
     <use xlink:href="#mb87179232a" x="202.080888" y="691.209883" style="fill: #64748b; stroke: #64748b; stroke-width: 3"/>
    </g>
   </g>
   <g id="line2d_83">
    <defs>
     <path id="m4dd824e3fc" d="M 0 8.5 
C 2.254226 8.5 4.416429 7.604386 6.010408 6.010408 
C 7.604386 4.416429 8.5 2.254226 8.5 0 
C 8.5 -2.254226 7.604386 -4.416429 6.010408 -6.010408 
C 4.416429 -7.604386 2.254226 -8.5 0 -8.5 
C -2.254226 -8.5 -4.416429 -7.604386 -6.010408 -6.010408 
C -7.604386 -4.416429 -8.5 -2.254226 -8.5 0 
C -8.5 2.254226 -7.604386 4.416429 -6.010408 6.010408 
C -4.416429 7.604386 -2.254226 8.5 0 8.5 
z
" style="stroke: #64748b; stroke-width: 3"/>
    </defs>
    <g clip-path="url(#peb1cd4f089)">
     <use xlink:href="#m4dd824e3fc" x="755.130035" y="552.672396" style="fill: #ffffff; stroke: #64748b; stroke-width: 3"/>
    </g>
   </g>
   <g id="line2d_84">
    <g clip-path="url(#peb1cd4f089)">
     <use xlink:href="#m4dd824e3fc" x="939.47975" y="527.167102" style="fill: #ffffff; stroke: #64748b; stroke-width: 3"/>
    </g>
   </g>
   <g id="line2d_85">
    <g clip-path="url(#peb1cd4f089)">
     <use xlink:href="#m4dd824e3fc" x="1123.829466" y="531.882355" style="fill: #ffffff; stroke: #64748b; stroke-width: 3"/>
    </g>
   </g>
   <g id="line2d_86">
    <g clip-path="url(#peb1cd4f089)">
     <use xlink:href="#m4dd824e3fc" x="1308.179182" y="527.242956" style="fill: #ffffff; stroke: #64748b; stroke-width: 3"/>
    </g>
   </g>
   <g id="line2d_87">
    <g clip-path="url(#peb1cd4f089)">
     <use xlink:href="#m4dd824e3fc" x="1492.528897" y="528.83132" style="fill: #ffffff; stroke: #64748b; stroke-width: 3"/>
    </g>
   </g>
   <g id="legend_1">
    <g id="patch_7">
     <path d="M 148.6 417.465 
L 619.595312 417.465 
Q 623.195312 417.465 623.195312 413.865 
L 623.195312 193.5 
Q 623.195312 189.9 619.595312 189.9 
L 148.6 189.9 
Q 145 189.9 145 193.5 
L 145 413.865 
Q 145 417.465 148.6 417.465 
z
" style="fill: #ffffff; opacity: 0.92; stroke: #e2e8f0; stroke-width: 1.5; stroke-linejoin: miter"/>
    </g>
    <g id="line2d_88">
     <path d="M 157.6 209.877188 
L 175.6 209.877188 
L 193.6 209.877188 
" style="fill: none; stroke: #22d3ee; stroke-width: 4; stroke-linecap: square"/>
     <defs>
      <path id="m14abb2dfa6" d="M 0 7 
C 1.856422 7 3.637059 6.262436 4.949747 4.949747 
C 6.262436 3.637059 7 1.856422 7 0 
C 7 -1.856422 6.262436 -3.637059 4.949747 -4.949747 
C 3.637059 -6.262436 1.856422 -7 0 -7 
C -1.856422 -7 -3.637059 -6.262436 -4.949747 -4.949747 
C -6.262436 -3.637059 -7 -1.856422 -7 0 
C -7 1.856422 -6.262436 3.637059 -4.949747 4.949747 
C -3.637059 6.262436 -1.856422 7 0 7 
z
" style="stroke: #22d3ee"/>
     </defs>
     <g>
      <use xlink:href="#m14abb2dfa6" x="175.6" y="209.877188" style="fill: #22d3ee; stroke: #22d3ee"/>
     </g>
    </g>
    <g id="text_28">
     <text style="font-size: 18px; font-family: 'Space Grotesk', sans-serif; text-anchor: start; fill: #0f172a" x="208" y="216.177188" transform="rotate(-0 208 216.177188)">NIM FP8 (NIM's own choice on this card)</text>
    </g>
    <g id="line2d_89">
     <path d="M 157.6 236.297813 
L 175.6 236.297813 
L 193.6 236.297813 
" style="fill: none; stroke: #2563eb; stroke-width: 4; stroke-linecap: square"/>
     <defs>
      <path id="m5e3e8cb103" d="M 0 7 
C 1.856422 7 3.637059 6.262436 4.949747 4.949747 
C 6.262436 3.637059 7 1.856422 7 0 
C 7 -1.856422 6.262436 -3.637059 4.949747 -4.949747 
C 3.637059 -6.262436 1.856422 -7 0 -7 
C -1.856422 -7 -3.637059 -6.262436 -4.949747 -4.949747 
C -6.262436 -3.637059 -7 -1.856422 -7 0 
C -7 1.856422 -6.262436 3.637059 -4.949747 4.949747 
C -3.637059 6.262436 -1.856422 7 0 7 
z
" style="stroke: #2563eb"/>
     </defs>
     <g>
      <use xlink:href="#m5e3e8cb103" x="175.6" y="236.297813" style="fill: #2563eb; stroke: #2563eb"/>
     </g>
    </g>
    <g id="text_29">
     <text style="font-size: 18px; font-family: 'Space Grotesk', sans-serif; text-anchor: start; fill: #0f172a" x="208" y="242.597813" transform="rotate(-0 208 242.597813)">NIM bf16</text>
    </g>
    <g id="line2d_90">
     <path d="M 157.6 262.718437 
L 175.6 262.718437 
L 193.6 262.718437 
" style="fill: none; stroke: #94a3b8; stroke-width: 4; stroke-linecap: square"/>
     <defs>
      <path id="mac2b958aa8" d="M 0 7 
C 1.856422 7 3.637059 6.262436 4.949747 4.949747 
C 6.262436 3.637059 7 1.856422 7 0 
C 7 -1.856422 6.262436 -3.637059 4.949747 -4.949747 
C 3.637059 -6.262436 1.856422 -7 0 -7 
C -1.856422 -7 -3.637059 -6.262436 -4.949747 -4.949747 
C -6.262436 -3.637059 -7 -1.856422 -7 0 
C -7 1.856422 -6.262436 3.637059 -4.949747 4.949747 
C -3.637059 6.262436 -1.856422 7 0 7 
z
" style="stroke: #94a3b8"/>
     </defs>
     <g>
      <use xlink:href="#mac2b958aa8" x="175.6" y="262.718437" style="fill: #94a3b8; stroke: #94a3b8"/>
     </g>
    </g>
    <g id="text_30">
     <text style="font-size: 18px; font-family: 'Space Grotesk', sans-serif; text-anchor: start; fill: #0f172a" x="208" y="269.018438" transform="rotate(-0 208 269.018438)">Ollama 4-bit (16 slots)</text>
    </g>
    <g id="line2d_91">
     <path d="M 157.6 289.139063 
L 175.6 289.139063 
L 193.6 289.139063 
" style="fill: none; stroke: #64748b; stroke-width: 4; stroke-linecap: square"/>
     <defs>
      <path id="m47c1d2409b" d="M 0 7 
C 1.856422 7 3.637059 6.262436 4.949747 4.949747 
C 6.262436 3.637059 7 1.856422 7 0 
C 7 -1.856422 6.262436 -3.637059 4.949747 -4.949747 
C 3.637059 -6.262436 1.856422 -7 0 -7 
C -1.856422 -7 -3.637059 -6.262436 -4.949747 -4.949747 
C -6.262436 -3.637059 -7 -1.856422 -7 0 
C -7 1.856422 -6.262436 3.637059 -4.949747 4.949747 
C -3.637059 6.262436 -1.856422 7 0 7 
z
" style="stroke: #64748b"/>
     </defs>
     <g>
      <use xlink:href="#m47c1d2409b" x="175.6" y="289.139063" style="fill: #64748b; stroke: #64748b"/>
     </g>
    </g>
    <g id="text_31">
     <text style="font-size: 18px; font-family: 'Space Grotesk', sans-serif; text-anchor: start; fill: #0f172a" x="208" y="295.439063" transform="rotate(-0 208 295.439063)">Ollama 16-bit (8 slots)</text>
    </g>
    <g id="line2d_92">
     <path d="M 157.6 315.559688 
L 175.6 315.559688 
L 193.6 315.559688 
" style="fill: none; stroke-dasharray: 9.6,6.8; stroke-dashoffset: 0; stroke: #475569; stroke-width: 4"/>
    </g>
    <g id="text_32">
     <text style="font-size: 18px; font-family: 'Space Grotesk', sans-serif; text-anchor: start; fill: #0f172a" x="208" y="321.859688" transform="rotate(-0 208 321.859688)">dashed: no level between 1 and 8 in this run</text>
    </g>
    <g id="line2d_93">
     <defs>
      <path id="m1c4d083bed" d="M 0 8.485281 
L 8.485281 0 
L 0 -8.485281 
L -8.485281 0 
z
" style="stroke: #475569; stroke-linejoin: miter"/>
     </defs>
     <g>
      <use xlink:href="#m1c4d083bed" x="175.6" y="341.980313" style="fill: #475569; stroke: #475569; stroke-linejoin: miter"/>
     </g>
    </g>
    <g id="text_33">
     <text style="font-size: 18px; font-family: 'Space Grotesk', sans-serif; text-anchor: start; fill: #0f172a" x="208" y="348.280313" transform="rotate(-0 208 348.280313)">c = 1, 2, 4: separate run</text>
    </g>
    <g id="line2d_94">
     <defs>
      <path id="m4fff89a1cf" d="M 0 6 
C 1.591219 6 3.117479 5.367802 4.242641 4.242641 
C 5.367802 3.117479 6 1.591219 6 0 
C 6 -1.591219 5.367802 -3.117479 4.242641 -4.242641 
C 3.117479 -5.367802 1.591219 -6 0 -6 
C -1.591219 -6 -3.117479 -5.367802 -4.242641 -4.242641 
C -5.367802 -3.117479 -6 -1.591219 -6 0 
C -6 1.591219 -5.367802 3.117479 -4.242641 4.242641 
C -3.117479 5.367802 -1.591219 6 0 6 
z
" style="stroke: #475569; stroke-opacity: 0.38"/>
     </defs>
     <g>
      <use xlink:href="#m4fff89a1cf" x="175.6" y="368.400937" style="fill: #475569; fill-opacity: 0.38; stroke: #475569; stroke-opacity: 0.38"/>
     </g>
    </g>
    <g id="text_34">
     <text style="font-size: 18px; font-family: 'Space Grotesk', sans-serif; text-anchor: start; fill: #0f172a" x="208" y="374.700938" transform="rotate(-0 208 374.700938)">faint: clean-window recheck</text>
    </g>
    <g id="line2d_95">
     <defs>
      <path id="mf88e8b63df" d="M 0 6.5 
C 1.72382 6.5 3.377269 5.815119 4.596194 4.596194 
C 5.815119 3.377269 6.5 1.72382 6.5 0 
C 6.5 -1.72382 5.815119 -3.377269 4.596194 -4.596194 
C 3.377269 -5.815119 1.72382 -6.5 0 -6.5 
C -1.72382 -6.5 -3.377269 -5.815119 -4.596194 -4.596194 
C -5.815119 -3.377269 -6.5 -1.72382 -6.5 0 
C -6.5 1.72382 -5.815119 3.377269 -4.596194 4.596194 
C -3.377269 5.815119 -1.72382 6.5 0 6.5 
z
" style="stroke: #475569; stroke-width: 3"/>
     </defs>
     <g>
      <use xlink:href="#mf88e8b63df" x="175.6" y="394.821563" style="fill: #ffffff; stroke: #475569; stroke-width: 3"/>
     </g>
    </g>
    <g id="text_35">
     <text style="font-size: 18px; font-family: 'Space Grotesk', sans-serif; text-anchor: start; fill: #0f172a" x="208" y="401.121563" transform="rotate(-0 208 401.121563)">hollow: p99 time to first token &gt; 2 s</text>
    </g>
   </g>
  </g>
  <g id="text_36">
   <text style="font-style: italic; font-size: 17px; font-family: 'Space Grotesk', sans-serif; text-anchor: middle; fill: #475569" x="800" y="844.264531" transform="rotate(-0 800 844.264531)">One RTX 5090 · Llama 3.1 8B Instruct · synthetic chat 200/200 · closed loop · NIM 2.0.12 (vLLM 0.27.1) / Ollama 0.34.4</text>
  </g>
 </g>
 <defs>
  <clipPath id="peb1cd4f089">
   <rect x="136" y="180.9" width="1432" height="538.2"/>
  </clipPath>
 </defs>
</svg>
